<svg viewBox="0 0 240 193" xmlns="http://www.w3.org/2000/svg" fill-rule="evenodd" clip-rule="evenodd" stroke-linejoin="round" stroke-miterlimit="1.414"><g fill-rule="nonzero"><g fill="#00c1ff"><path d="M107.699 20.996c2.799 0 5.272.078 7.419.233 2.146.156 3.919.513 5.318 1.073 1.4.56 2.458 1.338 3.173 2.333.716.995 1.073 2.333 1.073 4.013 0 .871-.217 1.897-.653 3.079-.435 1.182-1.166 2.348-2.193 3.499-1.026 1.151-2.379 2.24-4.059 3.266-1.68 1.027-3.733 1.82-6.159 2.38-.124 0-.186.093-.186.28 0 .124.062.186.186.186.871.187 1.835.389 2.893.607a10.18 10.18 0 0 1 2.986 1.12 7.962 7.962 0 0 1 2.38 2.053c.653.84.979 1.975.979 3.406 0 1.742-.466 3.499-1.399 5.272-.933 1.773-2.255 3.375-3.966 4.806-1.711 1.431-3.795 2.597-6.252 3.499-2.458.902-5.241 1.353-8.352 1.353-1.804 0-3.733-.171-5.786-.513-2.052-.342-3.95-.949-5.692-1.82a10.85 10.85 0 0 0-1.213-.606c-.373-.156-.684-.234-.933-.234-.498 0-1.275.249-2.333.747a15.05 15.05 0 0 0-2.893 1.773l-.559-.467c.808-.871 1.353-1.508 1.633-1.913.279-.404.513-.762.699-1.073a493.727 493.727 0 0 0 3.08-5.272 256.845 256.845 0 0 0 3.033-5.412 2309.91 2309.91 0 0 1 2.799-5.133 273.57 273.57 0 0 1 2.473-4.432 98.47 98.47 0 0 1 2.006-3.779c.778-1.4 1.555-2.846 2.333-4.339a201.021 201.021 0 0 0 2.24-4.433 340.372 340.372 0 0 0 1.912-3.966c.063-.124.094-.28.094-.466 0-.187-.187-.28-.56-.28-.871 0-1.835.062-2.893.186a84.466 84.466 0 0 0-3.079.42c-.996.156-1.929.296-2.8.42-.871.125-1.555.187-2.053.187-.995 0-1.493-.311-1.493-.933 0-.685.187-1.213.56-1.587.125 0 .218.094.28.28.125.187.389.311.793.373.405.063 1.385.094 2.94.094 1.99 0 3.872-.047 5.645-.14 1.773-.093 3.966-.14 6.579-.14zm12.504 6.812c0-1.182-.249-2.162-.746-2.94a5.243 5.243 0 0 0-1.96-1.819 8.399 8.399 0 0 0-2.706-.887 19.379 19.379 0 0 0-2.986-.233c-.684 0-1.322.078-1.913.233-.591.156-1.104.514-1.54 1.073-.684.871-1.384 1.913-2.099 3.126l-2.007 3.406a470.753 470.753 0 0 0-6.625 12.318 1407.1 1407.1 0 0 0-7.092 13.811c-.311.622-.498 1.182-.56 1.679 0 .374.156.84.467 1.4.311.56.824 1.104 1.539 1.633.716.529 1.633.98 2.753 1.353s2.52.56 4.199.56c2.116-.062 4.215-.482 6.299-1.26a20.502 20.502 0 0 0 5.646-3.172 16.076 16.076 0 0 0 4.059-4.76 11.947 11.947 0 0 0 1.54-5.925c0-1.804-.685-3.188-2.053-4.153-1.369-.964-3.297-1.508-5.786-1.633-.871 0-1.835.109-2.893.327-1.057.218-1.99.327-2.799.327a1.06 1.06 0 0 1-.42-.234c-.093-.093-.14-.326-.14-.7 0-.311.093-.575.28-.793.187-.217.435-.326.747-.326.684 0 1.337.093 1.959.28.622.186 1.275.28 1.96.28.56 0 1.197-.047 1.913-.14.715-.094 1.322-.234 1.819-.42a19.013 19.013 0 0 0 3.313-1.913 15.362 15.362 0 0 0 2.939-2.753 13.537 13.537 0 0 0 2.1-3.546c.529-1.306.793-2.706.793-4.199zM169.567 1.68c0 .871-.342 2.146-1.027 3.826-.684 1.679-1.664 3.623-2.939 5.832-1.275 2.208-2.831 4.572-4.666 7.092-1.835 2.519-3.919 5.023-6.252 7.512a77.257 77.257 0 0 1-7.698 7.138 60.127 60.127 0 0 1-8.959 6.019c-.56.995-1.337 2.333-2.333 4.012a105.12 105.12 0 0 0-2.939 5.319 61.049 61.049 0 0 0-2.519 5.506c-.716 1.804-1.074 3.328-1.074 4.572 0 1.991.902 2.986 2.707 2.986 1.555 0 3.172-.435 4.852-1.306a27.844 27.844 0 0 0 4.806-3.173 47.318 47.318 0 0 0 4.292-3.965 75.713 75.713 0 0 0 3.406-3.78c.436-.435.684-.544.747-.326.062.217-.031.451-.28.7-1.12 1.368-2.442 2.83-3.966 4.385a45.14 45.14 0 0 1-4.853 4.293 29.13 29.13 0 0 1-5.365 3.266c-1.866.871-3.733 1.306-5.599 1.306-1.618 0-2.784-.389-3.499-1.166-.716-.778-1.073-1.727-1.073-2.846 0-1.12.482-2.722 1.446-4.806a89.44 89.44 0 0 1 3.406-6.579 151.551 151.551 0 0 1 3.919-6.532c1.307-2.053 2.271-3.608 2.893-4.666 1.057-1.804 2.162-3.685 3.313-5.645 1.15-1.96 2.286-3.873 3.406-5.739l3.219-5.366a113.164 113.164 0 0 1 2.846-4.525 66.161 66.161 0 0 1 3.266-4.573c1.12-1.431 2.551-2.861 4.293-4.292 2.363-1.991 4.541-3.515 6.532-4.573C165.865.529 167.203 0 167.887 0c.498 0 .902.14 1.213.42.311.28.467.7.467 1.26zm-4.199 2.426c0-.996-.405-1.493-1.214-1.493-.311 0-.653.093-1.026.28-.373.186-.855.575-1.446 1.166s-1.307 1.415-2.147 2.473a551.843 551.843 0 0 0-3.219 4.106c-.498.684-1.197 1.68-2.1 2.986a247.28 247.28 0 0 0-3.452 5.179 469.06 469.06 0 0 0-5.039 7.932c-1.96 3.141-4.277 6.858-6.952 11.151 3.732-2.115 7.232-4.681 10.498-7.699 3.266-3.017 6.081-6.112 8.445-9.284 2.364-3.173 4.23-6.253 5.599-9.239 1.368-2.986 2.053-5.505 2.053-7.558z"/><path d="M172.833 51.323a61.54 61.54 0 0 1-3.733 4.713 47.44 47.44 0 0 1-4.479 4.525c-1.555 1.369-3.142 2.504-4.759 3.406-1.617.902-3.142 1.353-4.572 1.353-1.058 0-1.882-.28-2.473-.839-.591-.56-.887-1.431-.887-2.613 0-.56.078-1.198.234-1.913.155-.716.419-1.509.793-2.38-.374.436-.793.949-1.26 1.54a13.428 13.428 0 0 1-1.586 1.68 8.314 8.314 0 0 1-1.96 1.306c-.715.342-1.509.513-2.38.513-.684 0-1.244-.202-1.679-.606-.436-.405-.653-1.042-.653-1.913 0-.498.108-1.12.326-1.867.218-.746.622-1.757 1.213-3.032.591-1.276 1.4-2.862 2.426-4.759a300.879 300.879 0 0 1 3.966-7.046c.311-.622.591-.933.84-.933.436 0 .887.265 1.353.793.467.529.7.887.7 1.074 0 .186-.187.559-.56 1.119a88.44 88.44 0 0 0-2.799 4.479 74.208 74.208 0 0 0-2.286 4.2 43.928 43.928 0 0 0-1.587 3.499c-.404 1.026-.606 1.82-.606 2.379 0 .934.342 1.4 1.026 1.4.622 0 1.478-.482 2.566-1.446 1.089-.964 2.38-2.597 3.873-4.899a245.15 245.15 0 0 0 1.726-3.126 231.955 231.955 0 0 1 1.727-3.126 134.3 134.3 0 0 1 1.586-2.753c.498-.84.871-1.478 1.12-1.913.311-.436.56-.653.746-.653.249 0 .529.264.84.793.311.529.467 1.166.467 1.913 0 .498-.125.964-.374 1.4a58.715 58.715 0 0 1-2.379 3.312 36.522 36.522 0 0 0-2.333 3.406 22.977 22.977 0 0 0-1.82 3.733c-.497 1.306-.746 2.737-.746 4.292 0 1.369.653 2.053 1.959 2.053.871 0 1.913-.326 3.126-.98 1.214-.653 2.535-1.57 3.966-2.752 1.431-1.182 2.909-2.613 4.433-4.293a52.162 52.162 0 0 0 4.339-5.505c.373-.125.56.031.56.466z"/><path d="M191.776 51.416c-1.058 1.307-2.318 2.66-3.78 4.06a35.583 35.583 0 0 1-4.759 3.826 27.224 27.224 0 0 1-5.319 2.799c-1.835.715-3.654 1.073-5.458 1.073-2.924 0-4.386-1.306-4.386-3.919 0-1.742.451-3.624 1.353-5.646a23.797 23.797 0 0 1 3.499-5.598c1.431-1.711 3.002-3.142 4.712-4.293 1.711-1.151 3.344-1.726 4.9-1.726.87 0 1.477.155 1.819.466.342.311.513.716.513 1.213 0 .747-.233 1.556-.699 2.427-.467.87-1.167 1.695-2.1 2.472-.933.778-2.115 1.431-3.546 1.96-1.431.529-3.142.793-5.132.793-.311.56-.654 1.447-1.027 2.66a12.473 12.473 0 0 0-.56 3.686c0 2.55 1.151 3.825 3.453 3.825 1.431 0 2.908-.342 4.432-1.026a25.55 25.55 0 0 0 4.433-2.566 31.887 31.887 0 0 0 3.966-3.359c1.213-1.214 2.224-2.349 3.032-3.406.125-.125.265-.156.42-.094.156.062.234.187.234.373zm-9.798-7.278c0-.809-.405-1.213-1.213-1.213-.623 0-1.26.233-1.913.7-.654.466-1.291 1.073-1.913 1.819a24.457 24.457 0 0 0-1.773 2.427c-.56.87-1.027 1.71-1.4 2.519.124.062.342.109.653.14.311.031.56.047.747.047 1.804 0 3.39-.638 4.759-1.913 1.368-1.276 2.053-2.784 2.053-4.526z"/></g><g fill="#fff"><path d="M34.891 63.732c-4.486 0-8.453.208-11.9.624-3.448.415-6.48 1.287-9.097 2.616-2.617 1.33-4.964 3.261-7.04 5.795-2.077 2.533-3.988 5.919-5.733 10.156-.166.332-.353.436-.56.311-.208-.125-.395-.436-.561-.935a59.742 59.742 0 0 1 2.617-6.542 36.708 36.708 0 0 1 3.427-5.856c1.287-1.786 2.72-3.302 4.299-4.549 1.578-1.246 3.323-2.035 5.233-2.367 2.077-.416 4.403-.602 6.979-.561 2.575.042 5.15.062 7.725.062 2.41 0 4.819.021 7.228.063 2.409.041 4.818.062 7.227.062h5.358c6.646-.083 11.963-1.205 15.951-3.365 1.246-.664 2.492-1.661 3.738-2.99 1.246-1.329 1.869-2.783 1.869-4.362 0-.415-.041-.706-.125-.872-.083-.083-.124-.207-.124-.374 0-.332.124-.498.374-.498.083 0 .207.083.374.249.996 1.08 1.744 2.16 2.243 3.24.249.332.373.831.373 1.495 0 .499-.166 1.08-.498 1.745-1.412 2.326-3.51 3.987-6.293 4.984-2.783.997-6.168 1.579-10.156 1.745a52.69 52.69 0 0 1-4.486.062 46.297 46.297 0 0 0-4.236.062c-1.163 0-2.036.416-2.617 1.247a467.65 467.65 0 0 0-12.897 20.685 780.456 780.456 0 0 0-10.779 18.941c-.748 1.412-1.35 2.72-1.807 3.925-.457 1.205-.727 2.305-.81 3.302 0 .665.083 1.309.249 1.932.166.623.54 1.163 1.122 1.62.581.456 1.433.83 2.554 1.121 1.122.291 2.596.436 4.424.436h1.495a7.74 7.74 0 0 0 1.495-.124c.25.332.125.664-.373.996-1.413.167-2.991.27-4.736.312-1.744.042-3.364.062-4.859.062-1.246 0-2.43-.02-3.552-.062-1.121-.042-2.118-.208-2.99-.498-.873-.291-1.579-.727-2.119-1.309-.54-.581-.81-1.412-.81-2.492 0-.665.166-1.412.499-2.243.332-.831.789-1.703 1.37-2.617a1173.698 1173.698 0 0 0 13.521-22.617c2.201-3.78 4.34-7.476 6.417-11.09a310.806 310.806 0 0 0 5.732-10.405c.416-.748.208-1.122-.623-1.122h-4.112zm37.882 28.287a20.166 20.166 0 0 0-1.558 2.118c-.54.831-.893 1.454-1.059 1.87-.083.249-.249.373-.499.373-.083 0-.207-.124-.374-.373a5.368 5.368 0 0 0-.685-.81c-.291-.291-.685-.561-1.184-.81-.498-.25-1.204-.374-2.118-.374-1.08 0-2.285.374-3.614 1.121-1.329.748-2.492 1.579-3.489 2.493a27.54 27.54 0 0 0-4.174 4.361 68.937 68.937 0 0 0-3.427 4.922 108.71 108.71 0 0 0-3.115 5.234 109.443 109.443 0 0 1-3.24 5.42c-.083.249-.333.374-.748.374-.166 0-.519-.249-1.059-.748-.54-.498-.81-.872-.81-1.121 0-.499.291-1.246.872-2.243 1.329-2.326 2.679-4.673 4.05-7.041 1.371-2.367 2.658-4.589 3.863-6.666a593.525 593.525 0 0 1 3.178-5.421c.913-1.537 1.536-2.679 1.869-3.427.415-.747.706-1.121.872-1.121.166 0 .582.208 1.246.623.665.415.997.997.997 1.745 0 .249-.145.664-.436 1.246a27.079 27.079 0 0 1-.997 1.806c-.374.624-.727 1.226-1.059 1.807-.333.582-.582.997-.748 1.246-.249.416-.291.623-.125.623.167 0 .374-.124.624-.373.83-.831 1.848-1.745 3.053-2.742a42.758 42.758 0 0 1 3.8-2.804 28.733 28.733 0 0 1 3.925-2.18c1.288-.582 2.43-.872 3.427-.872.748 0 1.392.186 1.932.56.54.374.81.769.81 1.184zm39.501 8.349a118.158 118.158 0 0 1-6.293 7.04 81.65 81.65 0 0 1-6.916 6.418c-2.326 1.911-4.631 3.447-6.915 4.611-2.285 1.163-4.383 1.744-6.293 1.744-1.662 0-2.825-.415-3.489-1.246-.665-.831-.997-1.869-.997-3.115 0-1.163.353-2.721 1.059-4.673s1.765-4.05 3.177-6.293a75.875 75.875 0 0 1-3.738 4.486 47.241 47.241 0 0 1-4.361 4.299c-1.496 1.288-2.991 2.368-4.486 3.24-1.496.872-2.825 1.308-3.988 1.308-1.744 0-2.617-.872-2.617-2.617 0-1.91.748-4.319 2.243-7.227 1.496-2.908 3.51-5.711 6.044-8.411a40.423 40.423 0 0 1 8.66-6.978c3.24-1.953 6.605-2.929 10.094-2.929.415-.83.789-1.412 1.121-1.744.333-.333.665-.582.997-.748l3.489-.997.25.125c-.416.415-.81.934-1.184 1.557-.374.624-.769 1.267-1.184 1.932.415 0 1.038.041 1.869.125.831.083 1.454.166 1.869.249.416.166.623.374.623.623s-.124.374-.373.374c-.499-.167-1.247-.291-2.243-.374-.997-.083-1.745-.125-2.243-.125-3.822 6.729-6.626 12.067-8.412 16.013-1.786 3.946-2.679 6.874-2.679 8.785 0 .747.187 1.37.561 1.869.374.498 1.142.748 2.305.748 1.329 0 2.908-.478 4.736-1.434 1.827-.955 3.779-2.284 5.856-3.987 2.077-1.703 4.216-3.676 6.418-5.919a93.617 93.617 0 0 0 6.292-7.103c.167-.249.333-.311.499-.187.166.125.249.312.249.561zm-19.439-9.47c-2.825 0-5.525.996-8.1 2.99a35.55 35.55 0 0 0-6.853 7.041c-1.994 2.7-3.593 5.379-4.798 8.037-1.204 2.658-1.807 4.611-1.807 5.857 0 .664.249.997.748.997.498 0 1.267-.333 2.305-.997 1.039-.665 2.222-1.558 3.552-2.679 1.329-1.122 2.679-2.43 4.049-3.926a40.044 40.044 0 0 0 3.801-4.859 92.098 92.098 0 0 0 3.863-6.356 586.107 586.107 0 0 1 3.365-5.981l-.125-.124z"/><path d="M144.05 101.365c-1.495 2.077-3.219 4.174-5.171 6.293a46.936 46.936 0 0 1-6.231 5.669c-2.201 1.662-4.444 3.033-6.729 4.113-2.285 1.08-4.507 1.62-6.667 1.62-.997 0-1.91-.146-2.741-.437-.831-.29-1.246-1.017-1.246-2.18 0-1.163.415-2.638 1.246-4.424a83.583 83.583 0 0 1 2.928-5.67 558.33 558.33 0 0 1 3.489-6.106c1.205-2.076 2.181-3.987 2.929-5.732.166-.415.187-.768.062-1.059-.125-.291-.395-.311-.81-.062-.914.581-1.994 1.371-3.24 2.367a117.534 117.534 0 0 0-3.8 3.178 98.526 98.526 0 0 0-3.739 3.427c-1.204 1.163-2.18 2.201-2.928 3.115a98.773 98.773 0 0 0-3.427 5.732c-.955 1.745-2.139 3.697-3.551 5.857-.333.498-.582.747-.748.747-.415 0-.768-.456-1.059-1.37-.291-.914-.436-1.496-.436-1.745 0-.747.519-1.765 1.557-3.053a498.78 498.78 0 0 0 3.427-4.299c1.329-2.658 2.7-5.462 4.112-8.411a210.11 210.11 0 0 0 3.614-7.913c.249-.415.623-.623 1.121-.623.499 0 .956.208 1.371.623.416.416.623.872.623 1.371 0 .332-.602 1.474-1.807 3.427-1.204 1.952-2.388 4.216-3.551 6.791a238.915 238.915 0 0 1 5.171-4.486 179.939 179.939 0 0 1 5.359-4.361c1.703-1.33 3.198-2.43 4.486-3.303 1.287-.872 2.18-1.308 2.679-1.308.332 0 .644.187.934.561.291.374.436.727.436 1.059 0 .332-.207.831-.623 1.495a193.043 193.043 0 0 0-3.364 5.109 108.875 108.875 0 0 0-3.801 6.418c-1.204 2.201-2.222 4.299-3.053 6.293-.83 1.993-1.246 3.572-1.246 4.735 0 .997.208 1.682.623 2.056.416.374 1.08.561 1.994.561 1.412 0 3.074-.54 4.984-1.62 1.911-1.08 3.884-2.43 5.919-4.05a50.624 50.624 0 0 0 5.795-5.421c1.827-1.993 3.323-3.904 4.486-5.732.166-.249.415-.311.747-.187.333.125.291.436-.124.935z"/><path d="M155.389 94.636c-.249.415-.456.457-.623.125-.498-1.08-1.537-1.62-3.115-1.62-1.163 0-2.326.332-3.489.996-1.163.665-1.745 1.662-1.745 2.991 0 .665.208 1.329.623 1.994.416.664.997 1.537 1.745 2.617a58.192 58.192 0 0 1 1.869 2.99c.582.997.872 2.036.872 3.116 0 2.16-.498 3.925-1.495 5.296-.997 1.37-2.181 2.471-3.551 3.302-1.371.83-2.762 1.391-4.175 1.682-1.412.291-2.533.436-3.364.436-5.068 0-7.851-1.703-8.349-5.109.415-.249.893-.561 1.433-.934.54-.374.935-.727 1.184-1.06.166 0 .29.166.374.499.415 1.495 1.204 2.783 2.367 3.863s2.534 1.62 4.112 1.62c.665 0 1.454-.063 2.368-.187a6.915 6.915 0 0 0 2.554-.873c.79-.456 1.475-1.1 2.056-1.931.582-.831.873-1.952.873-3.365 0-1.079-.208-2.076-.623-2.99a17.715 17.715 0 0 0-1.371-2.492l-1.495-2.493a5.22 5.22 0 0 1-.748-2.741c0-.997.353-2.077 1.059-3.24a13.782 13.782 0 0 1 2.679-3.177 17.291 17.291 0 0 1 3.552-2.43c1.287-.665 2.554-.997 3.8-.997 1.33 0 1.994.415 1.994 1.246-.249.415-.498.893-.748 1.433-.249.54-.456 1.018-.623 1.433z"/><path d="M237.632 28.343c0 .332-.062.914-.187 1.745-.124.83-.249 1.744-.373 2.741l-.374 2.991c-.125.997-.187 1.744-.187 2.243a.846.846 0 0 1-.623.249c-.166 0-.332-.083-.499-.249.167-.665.27-1.246.312-1.745.041-.498.062-.997.062-1.495 0-1.662-.685-2.949-2.056-3.863-1.371-.914-3.302-1.371-5.794-1.371-1.745 0-3.552.291-5.421.872-1.869.582-3.78 1.62-5.732 3.116-1.952 1.495-3.987 3.489-6.106 5.981-2.118 2.492-4.299 5.649-6.542 9.47-1.246 2.16-2.783 4.943-4.61 8.349-1.828 3.406-3.78 7.041-5.857 10.904a771.505 771.505 0 0 0-6.231 11.838 1038.79 1038.79 0 0 0-5.732 11.277c.748 0 1.994-.021 3.739-.062 1.744-.042 3.53-.063 5.358-.063h8.1c.415.25.539.665.373 1.247h-2.492c-1.329 0-2.907.02-4.735.062-1.828.041-3.718.083-5.67.124-1.952.042-3.717.063-5.296.063a468.107 468.107 0 0 1-8.66 16.012 569.832 569.832 0 0 1-9.097 15.514c-3.032 4.985-6.023 9.616-8.972 13.894-2.949 4.279-5.67 8.038-8.162 11.278-6.23 7.975-12.149 14.724-17.757 20.249-5.607 5.524-10.945 10.01-16.012 13.458-5.068 3.447-9.824 5.939-14.268 7.476-4.445 1.537-8.661 2.306-12.648 2.306-1.163 0-2.43-.125-3.801-.374-1.37-.249-2.7-.748-3.987-1.496-1.288-.747-2.43-1.806-3.427-3.177-.997-1.371-1.745-3.178-2.243-5.421 0-.664.083-.955.249-.872.166.083.332.332.499.748.083.581.415 1.35.996 2.305.582.955 1.433 1.89 2.555 2.804 1.121.914 2.513 1.682 4.174 2.305 1.662.623 3.656.935 5.982.935 3.738-.083 7.788-.769 12.149-2.056 4.362-1.288 8.951-3.552 13.77-6.792 4.818-3.24 9.865-7.58 15.14-13.021 5.275-5.442 10.737-12.316 16.386-20.624a252.928 252.928 0 0 0 8.91-14.143 967.2 967.2 0 0 0 8.598-14.953c2.783-4.943 5.4-9.699 7.85-14.268 2.451-4.569 4.673-8.557 6.667-11.963-3.572.25-6.397.499-8.473.748-2.077.249-3.739.644-4.985 1.184-1.246.54-2.222 1.329-2.928 2.367-.706 1.039-1.516 2.472-2.43 4.299l-.374-.124c1.163-2.742 2.326-4.798 3.489-6.168 1.163-1.371 2.243-2.223 3.24-2.555.665-.166 1.558-.332 2.679-.498a44.132 44.132 0 0 1 3.614-.374c1.288-.083 2.554-.166 3.801-.249a49.675 49.675 0 0 1 3.239-.125c4.154-7.643 8.162-14.725 12.025-21.246a425.62 425.62 0 0 1 12.025-19.128 128.07 128.07 0 0 1 7.228-9.906c2.575-3.199 5.192-6.023 7.85-8.474 2.659-2.451 5.296-4.403 7.913-5.857 2.617-1.453 5.13-2.18 7.539-2.18 1.661 0 3.115.374 4.361 1.121 1.246.748 1.869 1.62 1.869 2.617z"/><path d="M218.193 102.611c-1.412 1.745-3.094 3.551-5.047 5.421a47.504 47.504 0 0 1-6.355 5.109 36.386 36.386 0 0 1-7.103 3.738c-2.45.955-4.88 1.433-7.289 1.433-3.905 0-5.857-1.745-5.857-5.234 0-2.326.602-4.839 1.807-7.539a31.75 31.75 0 0 1 4.673-7.476c1.911-2.285 4.008-4.196 6.293-5.732 2.284-1.537 4.465-2.306 6.542-2.306 1.163 0 1.973.208 2.43.623.457.416.685.956.685 1.62 0 .997-.312 2.077-.935 3.24-.623 1.163-1.557 2.264-2.803 3.302-1.246 1.039-2.825 1.911-4.736 2.617-1.91.706-4.195 1.059-6.853 1.059-.416.748-.872 1.932-1.371 3.552a16.661 16.661 0 0 0-.748 4.922c0 3.406 1.537 5.109 4.611 5.109 1.911 0 3.884-.457 5.919-1.371a34.153 34.153 0 0 0 5.919-3.427 42.454 42.454 0 0 0 5.296-4.486c1.62-1.62 2.97-3.136 4.05-4.548.166-.166.353-.208.561-.124.207.083.311.249.311.498zm-13.084-9.72c0-1.08-.54-1.62-1.62-1.62-.831 0-1.682.312-2.554.935-.873.623-1.724 1.433-2.555 2.43a32.566 32.566 0 0 0-2.368 3.24 27.966 27.966 0 0 0-1.869 3.364c.166.083.457.146.873.187.415.042.747.062.996.062 2.41 0 4.528-.851 6.356-2.554 1.827-1.703 2.741-3.718 2.741-6.044z"/><path d="M240 92.019a20.31 20.31 0 0 0-1.558 2.118c-.54.831-.893 1.454-1.059 1.87-.083.249-.249.373-.498.373-.083 0-.208-.124-.374-.373a5.428 5.428 0 0 0-.685-.81c-.291-.291-.686-.561-1.184-.81-.499-.25-1.205-.374-2.119-.374-1.08 0-2.284.374-3.613 1.121-1.33.748-2.493 1.579-3.489 2.493a27.547 27.547 0 0 0-4.175 4.361 69.263 69.263 0 0 0-3.427 4.922 108.71 108.71 0 0 0-3.115 5.234 109.443 109.443 0 0 1-3.24 5.42c-.083.249-.332.374-.747.374-.167 0-.52-.249-1.06-.748-.54-.498-.81-.872-.81-1.121 0-.499.291-1.246.873-2.243 1.329-2.326 2.679-4.673 4.049-7.041l3.863-6.666a593.525 593.525 0 0 1 3.178-5.421c.914-1.537 1.537-2.679 1.869-3.427.415-.747.706-1.121.872-1.121.167 0 .582.208 1.247.623.664.415.996.997.996 1.745 0 .249-.145.664-.436 1.246a27.079 27.079 0 0 1-.997 1.806c-.373.624-.727 1.226-1.059 1.807-.332.582-.581.997-.747 1.246-.25.416-.291.623-.125.623.166 0 .374-.124.623-.373.831-.831 1.848-1.745 3.053-2.742a42.628 42.628 0 0 1 3.801-2.804 28.674 28.674 0 0 1 3.925-2.18c1.287-.582 2.43-.872 3.427-.872.747 0 1.391.186 1.931.56.54.374.81.769.81 1.184z"/></g></g></svg>